<?xml version="1.0" encoding="UTF-8"?>
<svg id="Calque_2" data-name="Calque 2" xmlns="http://www.w3.org/2000/svg" viewBox="0 0 75.85 64.59">
  <defs>
    <style>
      .cls-1 {
        stroke-width: 0px;
      }
    </style>
  </defs>
  <g id="Calque_1-2" data-name="Calque 1">
    <path class="cls-1" d="m20.96,60.03c.07-.07.06-.3-.01-.38-.06-.08-.35-.1-.36-.07-.13.27-.22.56-.32.85.04.01.07.02.11.03.19-.14.41-.27.58-.44Zm4.9-11.99c.08.15.16.29.27.49.12-.19.22-.34.33-.5-.24,0-.42,0-.6.01Zm-3.48.01h.01s0,0,0,0c.21-.34.42-.67.65-1.03-.52.19-.86.46-.65,1.03,0,0,0,0,0,0Zm3.34-5.4l.11.11c.15-.15.3-.3.46-.45-.04-.04-.07-.08-.11-.12l-.46.46Zm38.71,1.89c-.44-.33-.87-.67-1.31-.98-.18-.12-.4-.2-.61-.26-.06-.02-.15.08-.23.13.05.07.08.18.14.2.36.15.75.23.87.74.37-.32.56-.07.72.18.14.2.27.26.49.12-.02-.04-.03-.1-.06-.12Zm-5.82-2.52c.61.41,1.24.78,1.88,1.13.05.03.15-.03.32-.08-.28-.16-.55-.22-.66-.39-.39-.57-1.04-.43-1.54-.66Zm3.89,0c.18.23.35.45.53.68.19,0,.42,0,.73-.02-.45-.28-.83-.51-1.2-.74-.02.02-.04.05-.06.07Zm-3.75-.33c.29.14.58.28.87.42.03-.06.05-.11.08-.17-.29-.13-.59-.26-.88-.39-.02.04-.04.09-.07.14Zm1.48.38c-.02.05-.04.1-.06.15l.82.34s.03-.08.05-.11c-.27-.13-.54-.25-.81-.38Zm-3.7-1.18c.03-.05.05-.1.07-.15-.44-.22-.87-.44-1.31-.67-.03.05-.06.1-.08.16.44.22.88.44,1.32.66Zm-1.35-.11c.31.19.62.38.92.56.03-.04.05-.08.08-.12-.3-.2-.6-.4-.9-.6-.03.06-.07.11-.1.16Zm-1.69-1.05s.04-.08.06-.11c-.23-.12-.47-.24-.7-.37-.02.03-.03.06-.05.09.23.13.46.26.69.39Zm.03-.9c.18.09.36.18.54.27-.1-.28-.23-.47-.49-.39-.02.04-.04.08-.05.12Zm1.91-.09c-.19.07-.32.11-.45.16-.15-.37-.41-.49-.77-.45,0,0,0-.01,0-.02h0c-.08-.11-.16-.22-.23-.34-.05.02-.09.05-.14.07.05.14.11.28.16.43.07-.05.14-.11.21-.16,0,0,0,.01,0,.01h0c.06.46.4.62.79.72.11.03.21.07.32.11-.05.05-.09.1-.13.14-.15-.02-.3-.05-.44-.07,0,.05-.01.1-.02.14.53.21,1.05.43,1.57.65.02-.05.04-.1.07-.16-.32-.15-.64-.31-.98-.47.11-.11.18-.18.26-.26-.12-.05-.21-.1-.29-.13.02-.12.04-.22.07-.38Zm.14-.98c.71.45,1.43.87,2.14,1.32.76.47,1.5.97,2.26,1.43.12.07.3.01.45.05.27.05.54.13.82.2-.08.19-.12.28-.21.46.2-.09.31-.14.37-.16.22.13.41.23.59.34.05-.1.1-.18.14-.26-.74-.5-1.47-1-2.21-1.47-.38-.24-.74-.5-1.2-.65-.66-.22-1.24-.67-1.87-.99-.48-.24-.98-.43-1.47-.65-.02.03-.05.06-.08.09.09.1.15.23.26.29Zm-1.86.59c-.18-.2-.36-.4-.57-.64-.1.42.11.63.57.64Zm-22.68-2.55c.16-.21.33-.41.49-.62-.03-.03-.05-.06-.07-.08-.17.1-.37.16-.49.29-.26.3-.49.63-.72.95-.58.82-1.15,1.65-1.74,2.46-.31.43-.65.85-.96,1.28-.12.17-.17.38-.29.55-.31.41-.65.81-.98,1.22-.03.04-.03.11-.08.24.15-.05.26-.05.3-.11.27-.32.53-.65.78-1,.37-.5.7-1.02,1.08-1.5.34-.44.78-.8.96-1.35.02-.06.07-.11.1-.16.54-.72,1.07-1.45,1.61-2.18Zm-22.21-4.69c.53.19,1.22.14,1.39-.09-.54-.25-1.08-.22-1.39.09Zm37.74,4.05c-.11-.11-.2-.24-.32-.33-.05-.04-.15,0-.22,0,.03.07.03.18.09.21.12.08.27.12.4.17.02-.02.04-.04.06-.06Zm-2.72-1.81c.4.34.8.68,1.24,1.05-.09,0-.13.03-.16.01-.52-.35-1.04-.71-1.57-1.05-.19-.12-.38-.38-.63-.07-.03.03-.14-.01-.22-.01-.06,0-.12.02-.18.03.02.07.03.17.08.2.36.23.71.48,1.09.67.39.19.69.65,1.23.5.03,0,.09.04.13.07.59.36,1.17.73,1.76,1.09.03.02.09,0,.24,0-.59-.44-1.1-.83-1.61-1.22.02-.03.03-.06.05-.08.17.06.33.12.5.18.02-.04.04-.08.05-.11-.64-.45-1.28-.91-1.92-1.36l-.09.12Zm-29.53-4.35c-.12.59-.68.23-1,.52.47.27,1.37.29,1.62.06q-.57-.18-.63-.57Zm38.01,5.54c-.83-.44-1.66-.91-2.5-1.35-.2-.1-.42-.17-.69-.28-.1.23-.03.39.23.47.33.1.7.13.99.29,1.06.59,2.1,1.22,3.15,1.83.08.05.16.07.3.13-.35-.35-.65-.65-.95-.95-.02-.01-.04,0-.06-.01-.16-.05-.33-.06-.47-.14Zm-3.78-3.27c-.12-.29-.31-.38-.6-.27-.01.04-.03.08-.04.12.2.09.39.18.59.27.02-.04.03-.08.05-.12Zm5.15,1.7c.32.18.6.34.88.5.02-.03.04-.07.06-.1-.26-.18-.52-.35-.78-.52-.02-.01-.09.06-.16.11Zm-.1.43c-.78-.52-1.63-.97-2.36-1.55-.44-.35-.77-.23-1.22-.01.66.4,1.32.8,1.96,1.19-.3.35-.57.16-.86-.01-.09-.05-.19-.06-.29-.09,0,0,0-.01-.01-.02h-.02c-.31-.39-1.23-.94-1.46-.86.43.42.86.77,1.46.86,0,0,0,0,.01.01,0,0,.02,0,.03,0,.15.14.29.3.46.39.51.29,1.04.56,1.57.83.43.22.87.42,1.28.67.89.54,1.75,1.12,2.63,1.66.39.25.82.44,1.22.67.79.46,1.58.93,2.37,1.39.09.05.19.11.28.16.02-.03.03-.06.05-.09-1.05-.77-2.1-1.53-3.15-2.3.04,0,.12-.02.26-.03-.15-.11-.24-.17-.33-.23-.43-.29-.87-.58-1.3-.87-.86-.59-1.72-1.2-2.59-1.79Zm-4.94-2.6c.32.39.56.44,1.08.17-.16-.38-.55-.44-1.08-.17Zm-.47-1.95h0c.1.05.2.13.31.16.17.05.35.06.53.09,0-.04,0-.08.01-.11-.27-.13-.52-.4-.85-.13h0c.02-.12.08-.31.05-.32-.22-.11-.45-.18-.68-.26-.02.04-.04.07-.06.11.11.08.22.16.34.24l.34.24Zm14.37-4.33c-.08,0-.2,0-.24.06-.24.29-.57.22-.87.22-.68,0-1.37-.02-2.05-.03-.22,0-.37.04-.45.29-.03.12-.19.2-.3.28-.12.08-.26.11-.39.17.29.45.65.37,1.02.28.09-.02.18-.03.26-.01.67.16,1.25-.11,1.85-.33.4-.14.8-.28,1.21-.4.35-.1.7-.17,1.06-.25.02-.03.04-.07.06-.1-.06-.02-.11-.05-.17-.06-.33-.04-.66-.08-.99-.11Zm-14.46-4.18c-.26-.06-.4.04-.99.74-.07.09-.07.25-.1.37.05.02.09.04.14.07.32-.39.63-.79.95-1.18Zm-29.04-2.34c.82.65,1.66,1.27,2.48,1.91.36.28.71.59,1.08.86.63.46,1.28.89,1.91,1.35.67.49,1.32,1.02,1.99,1.5.77.55,1.56,1.06,2.33,1.59,1.04.71,2.07,1.42,3.11,2.12.23.16.49.3.76.39.53.17,1.02-.1,1.53-.2.06,0,.1-.11.15-.17-.08-.04-.16-.12-.23-.12-.09,0-.18.06-.24.09-.13-.16-.24-.31-.36-.45.65.08,1.19.56,1.87.41-.14-.12-.32-.14-.46-.23-.27-.19-.49-.48-.78-.61-1.14-.49-2.24-1.06-3.27-1.75-.15-.1-.4-.21-.51-.15-.24.14-.31-.02-.43-.13-.32-.3-.6-.66-.96-.88-.85-.52-1.76-.96-2.63-1.47-1.39-.82-2.77-1.67-4.16-2.5-.89-.53-1.79-1.06-2.69-1.59-.33-.2-.66-.41-.99-.62-.01.03-.03.05-.04.08.18.19.34.4.54.56Zm13.75,2.44c-.58-.37-1.12-.71-1.66-1.05.27.68,1.25,1.29,1.66,1.05Zm15.76-.66c.45-.14.6-.39.47-.65-.14.19-.28.39-.47.65Zm24.69,1.7c-.16-.07-.29-.07-.42-.04-.74.13-1.48.29-2.22.4-1.24.18-2.49.33-3.74.47-1.12.12-2.24.21-3.36.32-.43.04-.87.06-1.29.18-.89.25-1.76.57-2.65.83-.18.06-.4.04-.65.05,0,.29.24.23.41.23.83.01,1.66,0,2.48.02.94.02,1.89.08,2.83.09.89.01,1.76-.07,2.6-.4.34-.14.72-.18,1.07-.3.6-.21,1.2-.46,1.81-.69.7-.26,1.41-.53,2.12-.79.34-.13.67-.26,1.01-.38ZM15.14,10.16c.91,1.25,2.24,2.01,3.38,2.99.03-.04.07-.08.1-.12l-3.42-2.94-.06.07ZM60.13,1.97c.59-.53,1.16-1.08,1.77-1.59.21-.18.49-.31.75-.37.14-.04.4.07.47.19.09.14.1.42.02.55-.62,1.02-1.28,2.02-1.93,3.04-.09.14-.14.3-.21.45.02.02.05.04.08.06.11-.09.23-.17.32-.27.81-.86,1.62-1.73,2.42-2.6.2-.21.4-.4.71-.2.19.13.24.51.06.79-.29.44-.59.86-.92,1.27-.23.3-.48.58-.75.83-.31.29-.42.57-.09.9.16,0,.34-.05.49,0,.25.08.32.5.11.7-.37.36-.77.69-1.16,1.03-.32.28-.64.55-.96.83-.04.04-.09.13-.08.16.2.34-.09.47-.26.64-1.02,1.04-2.04,2.09-3.08,3.11-.85.83-1.75,1.6-2.58,2.43-.56.55-1.05,1.17-1.57,1.77-.76.87-1.53,1.74-2.27,2.63-.58.7-1.13,1.44-1.7,2.15-.37.47-.77.93-1.13,1.42-.36.47-.68.98-1.03,1.46-.4.54-.82,1.06-1.22,1.59-.03.03-.02.09-.02.09.78-.12,1.57-.24,2.35-.37.38-.06.74-.18,1.11-.25.77-.15,1.54-.28,2.31-.44.76-.16,1.52-.36,2.28-.54.41-.1.82-.21,1.23-.29.92-.18,1.86-.33,2.77-.52.63-.13,1.24-.31,1.87-.45.55-.12,1.11-.21,1.66-.34.2-.05.39-.16.59-.22,1.01-.32,2.02-.64,3.03-.96.06-.02.14-.05.18-.03.53.24.91-.37,1.42-.26.03,0,.1-.04.12-.08.18-.5.56-.59,1.03-.52.04,0,.1-.12.15-.2.2.59.67.12,1.01.3.06.2-.01.39-.26.4-.46.03-.85.39-1.35.27-.11-.02-.26.12-.39.17-.54.21-1.09.42-1.62.64-.11.05-.19.17-.29.26.02.03.04.06.06.09.08,0,.17.03.25.02,1.34-.17,2.68-.38,4.02-.52,1.72-.18,3.44-.31,5.16-.44.21-.01.45.08.65.19.23.14.14.47-.18.61-.51.2-1.04.38-1.56.56-.61.21-1.23.42-1.85.63-.58.2-1.17.4-1.75.6-.71.24-1.41.5-2.12.75-.38.13-.76.24-1.13.39-.11.04-.19.18-.29.26-.18.15-.36.32-.57.42-.22.1-.2.19-.1.37.16.31.06.5-.28.56-.6.11-1.19.23-1.77.42.3,0,.6.03.89-.03.71-.14,1.4.04,2.1.1.15.01.31.06.41.16.11.1.2.26.21.4,0,.07-.16.21-.27.23-.66.16-1.32.3-1.98.45-.54.12-1.08.26-1.61.38-.53.12-1.06.22-1.58.34-.36.08-.71.22-1.07.28-1.01.15-1.92.68-2.93.83-.5.07-1.05.09-1.48.32-.92.47-1.95.45-2.9.8-.6.23-1.26.29-1.94.42-.15-.09-.32-.15-.52-.19,0,0,0-.01-.01-.01t0,0c.02-.12.04-.24.06-.36h0s0,0,0,0c.23.02.4.38.72.08-.18-.1-.35-.18-.51-.26,1.05-.15,2.7-.52,2.89-.71-.45-.08-2.29.26-3.21.54-.64-.34-1.27-.68-1.91-1.02-.07-.04-.18,0-.27.01.05.07.08.17.15.2.59.3,1.18.58,1.77.88,0,0,0,0,0,0-.12.04-.21.08-.25.12-.06-.01-.13-.03-.19-.05-.02.05-.04.11-.06.16.26.14.53.27.8.4v.02s.01,0,.02,0c.37.53.78,1.01,1.45,1.16-.05-.06-.09-.13-.14-.19,1.06.74,2.14,1.47,3.19,2.22-.01.04-.03.07-.05.11.06-.02.11-.03.15-.04.03.02.05.04.08.06,1.21.87,2.38,1.8,3.57,2.69.76.56,1.52,1.12,2.29,1.66.73.51,1.47,1.03,2.23,1.48,1.13.67,2.3,1.29,3.44,1.95.3.17.7.29.65.8-.01.1.17.26.29.34.4.27.81.52,1.18.85-1.71-.82-3.43-1.64-5.14-2.46l-.08.12c.14.11.28.23.43.34.48.37.95.75,1.44,1.12.07.06.18.07.27.09h0c.12.13.22.3.36.38.45.26.93.48,1.39.73.13.07.23.19.32.33-.96.07-1.83-.3-2.72-.54.84.62,1.91.64,2.8,1.14.19-.51.5-.11.75-.17.05-.01.14.14.22.21-.02.02-.05.04-.07.07-.19-.06-.38-.11-.62-.18.02.15.03.24.05.4-.15-.02-.28,0-.4-.05-.46-.17-.91-.4-1.39-.54-.42-.13-.87-.16-1.31-.24-.09-.02-.18-.05-.27-.09-.24-.12-.47-.25-.71-.36-.04-.01-.11.06-.17.1.04.05.07.11.12.15.65.48,1.31.96,1.95,1.45.06.05.1.25.06.29-.08.07-.24.12-.32.08-.58-.26-1.15-.54-1.72-.81-.04-.02-.09-.07-.13-.06-.72.18-1.12-.43-1.66-.69-.35-.17-.65-.42-1.05-.53-.57-.16-1.1-.5-1.64-.77-.9-.46-1.79-.92-2.68-1.4-.34-.18-.65-.41-.98-.6-.17-.1-.37-.18-.55-.26-.02.03-.03.06-.04.09.42.31.83.62,1.25.93-.1-.02-.21-.04-.31-.08-.19-.07-.36-.29-.61-.12-.04.02-.15-.06-.22-.11-.47-.34-.92-.7-1.39-1.03-.45-.32-.89-.66-1.38-.88-.51-.24-.96-.57-1.44-.85-.17-.09-.36-.14-.54-.21-.01.04-.03.07-.05.1.2.21.39.43.6.66-.22.17-.36.18-.57,0-.57-.47-1.2-.87-1.77-1.34-.64-.54-1.41-.82-2.14-1.2-.25-.13-.51-.26-.75-.42.63-.05,1.12.35,1.67.59.03-.04.05-.08.07-.12-.31-.21-.61-.48-.95-.62-.93-.38-1.82-.84-2.68-1.35-.94-.54-1.91-1.02-2.88-1.52-.2-.11-.43-.17-.68-.21.19.14.37.27.56.4-.03.06-.07.12-.1.17-.09,0-.2.02-.27-.01-.25-.12-.48-.27-.72-.41-.42-.26-.76-.22-1.05.18-.29.39-.53.81-.8,1.22-.24.37-.49.74-.75,1.1-.31.44-.63.88-.93,1.32-.42.62-.83,1.24-1.23,1.87-.53.84-1.05,1.69-1.59,2.54-.35.55-.73,1.07-1.07,1.63-.51.83-1,1.67-1.49,2.51-.89,1.52-1.77,3.04-2.67,4.55-.33.55-.74,1.05-1.08,1.6-.49.79-.95,1.61-1.42,2.41-.17.29-.38.55-.55.84-.37.62-.72,1.25-1.09,1.87-.17.29-.34.59-.51.89-.07.13-.14.27-.23.38-.21.25-.4.5-.56.79-.64,1.14-1.34,2.26-2.02,3.38-.34.55-.67,1.11-1.02,1.66-.17.02-.33.04-.49.06,0-.02.02-.04.03-.06.05-.08.15-.23.12-.26-.33-.36.08-.48.21-.69.41-.67.81-1.34,1.2-2.03.73-1.27,1.43-2.56,2.17-3.82,1.05-1.79,2.13-3.55,3.2-5.33.69-1.15,1.36-2.3,2.04-3.45.4-.66.8-1.32,1.19-1.98.06-.1.1-.21.15-.31-.04-.03-.09-.05-.13-.08-.45.66-.91,1.33-1.36,1.99-.35.5-.71.98-1.05,1.48-.29.44-.5.92-.83,1.33-.7.89-1.2,1.9-1.85,2.82-.6.86-1.28,1.65-1.9,2.49-.36.49-.66,1.03-1,1.53-.36.55-.75,1.08-1.12,1.63-.2.3-.36.64-.55.95-.37.62-.73,1.25-1.12,1.85-.24.36-.53.69-.82,1.02-.08.09-.29.15-.39.11-.1-.04-.16-.23-.18-.36-.01-.13.04-.27.09-.39.18-.45.37-.9.54-1.36-.48.4-1.04.7-1.23,1.39-.08.29-.41.53-.65.76-.06.06-.31.04-.36-.02-.08-.1-.1-.29-.06-.42.26-.74.68-1.39,1.14-2.02.23-.32.41-.69.6-1.04.34-.64.68-1.28,1.01-1.92.25-.49.51-.98.77-1.47.12-.21.26-.41.4-.61.03-.04.09-.08.09-.12.05-1.01.84-1.65,1.21-2.5.04-.11.16-.18.2-.32-.06.03-.14.05-.2.1-.85.65-1.43,1.56-2.14,2.35-.72.8-1.49,1.57-2.26,2.32-.12.12-.39.08-.59.1-.02-.15-.11-.33-.06-.45.15-.35.36-.68.54-1.02.04-.08.08-.16.11-.25.12-.31.23-.62.57-.76,0,0,0,0,0,0,0,0,0,0,.01,0-.07.32-.15.64-.2.96-.02.12.02.26.04.39.05,0,.09.02.14.03.14-.21.29-.42.42-.64.2-.35.43-.62.84-.74.14-.04.36-.31.32-.4-.09-.29.04-.46.18-.65.38-.5.76-.98,1.15-1.47.51-.63,1.04-1.25,1.52-1.89.54-.71,1.08-1.43,1.56-2.19.77-1.2,1.48-2.42,2.21-3.64.4-.67.75-1.36,1.14-2.03.44-.73.9-1.44,1.36-2.15.71-1.1,1.41-2.2,2.15-3.28.67-.97,1.38-1.91,2.06-2.88.07-.1.05-.26.07-.39-.14.05-.33.06-.42.16-.22.23-.41.51-.59.77-.45.62-.89,1.26-1.33,1.88-.32.45-.64.89-.98,1.32-.29.39-.61.75-.9,1.14-.42.55-.82,1.12-1.23,1.68-.2.28-.42.54-.63.82-.57.79-1.12,1.59-1.7,2.38-.34.47-.7.92-1.04,1.39-.43.59-.85,1.18-1.25,1.78-.38.55-.75,1.12-1.12,1.69-.13.2-.25.4-.38.6-.54.79-1.1,1.57-1.63,2.36-.36.53-.7,1.08-1.06,1.62-.19.07-.35.14-.52.2.14.1.24.16.33.17,0,0,0,.02,0,.03.05.25-.07.31-.29.32-.07,0-.13.09-.22.15.18.2.41.38,0,.51h0s-.01,0-.01,0c-.12-.32-.22-.34-.44-.08-.64.73-1.27,1.47-1.91,2.21-.07.08-.13.15-.2.23-.15.18-.31.39-.56.2-.23-.18-.57-.35-.36-.75.23-.42.48-.83.72-1.25.07-.13.12-.27.19-.4.13-.24.26-.47.4-.7.03-.05.07-.11.08-.16.06-.58.55-.77.93-1.05.01.45-.23.8-.47,1.14-.35.49-.59,1.02-.8,1.58.04.03.08.06.11.09.18-.18.37-.35.53-.55.47-.61.93-1.23,1.38-1.86.69-.98,1.37-1.96,2.05-2.95.5-.73,1-1.46,1.47-2.22.3-.48.53-1,.8-1.51.19-.37.38-.74.59-1.1.05-.09.2-.13.37-.23.01-.04.03-.07.04-.11-.01.06-.02.12-.04.19.46-.14,1.84-2.47,1.78-2.95-.14.17-.26.31-.38.44.03-.1.06-.2.08-.3.08-.3.21-.59.35-.88.07-.15.19-.28.31-.39.09-.09.22-.13.29-.17.09-.24.13-.49.26-.68.03-.04.06-.09.09-.13-.01.02-.02.03-.04.05-.03.04-.03.09-.05.14-.16.42-.32.84-.49,1.3.09-.06.25-.11.32-.21.24-.41.46-.84.69-1.26.07-.13.16-.25.23-.39.11-.22.22-.45.32-.68-.03-.02-.06-.05-.1-.08-.03.02-.06.04-.1.06.04-.1.06-.21.12-.3.17-.26.33-.53.5-.79.02.08.04.16.06.24.03,0,.06.01.09.02.08-.19.13-.41.24-.58.28-.4.61-.77.9-1.17.2-.27.47-.56.51-.86,0-.06.02-.11.03-.16.29-.39.57-.78.85-1.17.06-.08.1-.23.06-.3-.03-.07-.2-.17-.26-.14-.25.11-.5.22-.7.39-.96.87-1.65,1.94-2.34,3.03-.03.05-.09.09-.12.14-.39.54-.78,1.08-1.17,1.63-.2.28-.4.57-.62.83-.07.08-.21.11-.37.2-.06-.81.38-1.32.74-1.87.02-.03.06-.06.09-.06.72-.09.8-.7.99-1.22.06-.15.12-.31.21-.43.54-.73,1.09-1.45,1.64-2.17.07-.09.13-.2.22-.34-.52.01-.97,0-1.42.04-.97.07-1.93.18-2.9.24-1.62.1-3.23.19-4.85.26-1.07.05-2.14.05-3.21.1-.57.03-1.14.1-1.7.2-2.23.38-4.43.88-6.71.9-.98.01-1.96.11-2.94.13-.48.01-.96-.1-1.44-.1-.36,0-.73.11-1.1.16-.22.03-.49.1-.39-.31.01-.06-.01-.16-.06-.2-.3-.28-.35-.56.05-.87C.88,35.27,0,34.79,0,33.61c.16.13.32.24.47.38.47.43.96.73,1.64.67.93-.09,1.88-.11,2.81-.16.48-.03.52-.09.47-.57-.03-.35.16-.62.48-.72.45-.14.91-.25,1.37-.31.59-.07,1.19-.06,1.79-.1.13,0,.27-.07.4-.11,0-.05,0-.1.01-.15-.2-.06-.39-.15-.59-.18-.27-.04-.55-.01-.82-.04-.57-.06-1.14-.15-1.72-.19-.16,0-.35.11-.5.21-.16.1-.29.23-.41.38-.1.12-.17.27-.25.41.02.04.04.09.07.13-.33-.05-.66-.11-.99-.16-.02-.31.32-.7.68-.82.1-.03.2-.11.29-.17-.09-.08-.18-.18-.29-.23-.18-.09-.39-.11-.55-.22-.19-.13-.49-.35-.47-.49.04-.25.25-.5.45-.68.16-.14.4-.22.62-.25.51-.06,1.02-.08,1.53-.12.02.06.03.13.05.19-.57.23-1.13.46-1.76.71.22.09.39.21.57.23.51.06,1.03.1,1.55.11.35,0,.85-.54.9-.89.01-.09.18-.22.28-.22.68.03,1.35.1,2.03.13.46.02.92.01,1.38,0,.11,0,.22-.08.38-.14-.48-.31-.9-.56-1.3-.84-.13-.09-.25-.24-.32-.4-.15-.35,0-.6.39-.62.68-.03,1.37-.09,2.03.13.04.01.08.02.1.04.43.52,1.01.25,1.52.28,1.01.06,2.01.12,3.01.2,1.78.15,3.58.32,5.36.09,1.19-.15,2.37-.46,3.56-.63,1.62-.23,3.23-.62,4.88-.58.31,0,.63-.08,1.04-.14-5.22-3.33-10.03-7.14-15.03-10.67.2.44.63.63.99.9.38.3.77.59,1.15.89.37.29.72.6,1.08.9-.02.03-.04.06-.07.1-.42-.29-.87-.54-1.27-.86-.73-.58-1.45-1.18-2.16-1.79-.29-.25-.56-.53-.85-.79-.06-.06-.13-.11-.2-.16-.66-.49-1.3-.99-1.98-1.45-.43-.3-.91-.53-1.37-.8-.1-.06-.25-.12-.28-.21-.12-.33-.38-.47-.65-.64-.21-.13-.43-.29-.54-.5-.09-.15-.09-.46,0-.56.1-.11.41-.14.56-.07.3.15.53.4.81.6.49.35.98.69,1.47,1.01.86.55,1.74,1.1,2.61,1.64.17.11.36.18.53.29,1,.59,2,1.19,3.02,1.77.91.52,1.83,1.01,2.74,1.52.38.21.73.46,1.11.67.55.31,1.11.61,1.66.91.48.27.97.54,1.45.83.54.32,1.08.66,1.62,1,.08.05.16.09.34.18-.07-.14-.08-.2-.12-.24-.44-.44-.87-.9-1.42-1.21-.08-.04-.19-.02-.24-.02-.11-.08-.22-.16-.32-.23-.25-.18-.5-.36-.74-.56-.48-.38-.95-.76-1.41-1.16-.09-.08-.11-.24-.17-.36-.03-.07-.07-.15-.13-.2-.36-.29-.71-.59-1.08-.86-.14-.1-.32-.2-.47-.18-.35.03-.51-.18-.71-.39-.28-.3-.56-.63-.88-.88-.55-.43-1.13-.81-1.7-1.21-.63-.43-1.29-.82-1.9-1.28-.51-.39-.98-.84-1.46-1.27-.79-.71-1.62-1.38-2.36-2.14-.53-.54-.94-1.18-1.41-1.79-.14-.18-.28-.36-.37-.55-.18-.4-.16-.48.14-.81-.22-.23-.43-.47-.66-.69-.58-.56-1.18-1.11-1.76-1.68-.09-.09-.11-.25-.17-.39.12-.03.27-.12.38-.09.45.15.9.31,1.33.51.22.1.4.3.6.46-.02.05-.04.1-.06.15-.37-.1-.74-.19-1.11-.28-.02.04-.04.07-.06.11.47.48.87,1.02,1.43,1.42.75.53,1.62.91,2.26,1.6.07.07.17.15.17.23,0,.39.32.45.56.57.08.04.22-.03.34-.05-.03-.1-.04-.23-.11-.29-.48-.47-.97-.93-1.47-1.38-.3-.27-.63-.53-.93-.82.69.05,3.07,2.39,2.94,2.82.43-.03,1.22.68,1.28,1.24.12-.06.3-.1.31-.18.04-.18.07-.4,0-.55-.19-.34-.44-.65-.66-.97.03-.03.05-.06.08-.09.44.36.89.72,1.33,1.08.05-.02.09-.03.13-.05-.02-.2-.05-.4-.07-.6-.01-.16-.04-.32-.02-.46,0-.05.21-.13.25-.1.52.36,1.05.71,1.52,1.13.49.44.91.96,1.38,1.43.17.17.39.3.57.46.39.36.76.76,1.18,1.08,1.16.88,2.21,1.88,3.28,2.86.41.37.94.6,1.42.88.75.42,1.49.87,2.27,1.22.93.41,1.71,1.06,2.58,1.56.49.28.97.57,1.45.86,1.03.69,1.84,1.2,2.19,1.36l-.11.39s-.03-.01-.04-.01c-.41.25-.78.18-1.16-.13-.27-.21-.6-.34-.9-.51-.02.03-.04.07-.06.1.03.03.06.07.09.1.71.45,1.43.89,2.13,1.35.38.25.75.53,1.12.81.06.05.07.18.07.28,0,.02-.16.09-.21.06-.6-.33-1.19-.67-1.78-1.02-.24-.14-.48-.31-.71-.46-.03.03-.05.06-.08.1.25.22.49.45.74.67.39.34.79.69,1.19,1.03.52.45,1.12.39,1.81.23-.21-.08-.35-.16-.5-.18-.27-.03-.32-.09-.22-.36.31.12.62.23.94.35.03-.02.07-.04.1-.06-.05-.17-.06-.38-.16-.51-.1-.14-.23-.25-.38-.33l.17-.67c.41.25.81.55,1.32.54.14,0,.3-.23.41-.38.09-.14.09-.32.35-.3.08,0,.17-.23.28-.34.72-.71,1.45-1.41,2.15-2.13.84-.86,1.65-1.75,2.47-2.63.6-.65,1.2-1.29,1.79-1.95.51-.58.98-1.18,1.49-1.77.23-.27.5-.51.75-.77.14-.14.27-.29.39-.44.3-.37.61-.73.9-1.11.1-.13.15-.31.19-.48.1-.43.35-.62.77-.63.15,0,.34-.08.44-.18,1.03-1.13,2.04-2.29,3.07-3.43.37-.41.86-.73,1.18-1.17.68-.96,1.57-1.7,2.38-2.52.32-.32.6-.69,1.1-.77.12-.02.23-.19.34-.29Zm2.01-.45c-.32.17-.62.26-.84.46-.43.39-.82.83-1.21,1.26-.52.57-1.03,1.16-1.55,1.73-.89.97-1.8,1.93-2.69,2.91-.68.75-1.34,1.51-2,2.27-.25.29-.64.56-.71.9-.16.79-.76,1.25-1.15,1.86-.03.05-.13.05-.19.08-.1.05-.22.09-.29.16-.35.36-.68.73-1.03,1.08-.8.83-1.72,1.53-2.37,2.5-.31.46-.63.91-.95,1.36l.09.08c.07-.07.14-.13.2-.19,1.32-1.45,2.64-2.91,3.98-4.34.51-.55,1.07-1.04,1.6-1.57,1.01-1,2.02-2,3-3.03.54-.57,1.21-.97,1.67-1.65.71-1.06,1.52-2.06,2.32-3.07.34-.43.5-1.03,1.13-1.17.06-.02.1-.13.15-.21.18-.29.37-.57.55-.86.11-.18.2-.38.29-.58ZM25.09,52.44s.07.04.11.06c.17-.19.35-.38.5-.58.45-.61.89-1.23,1.32-1.84.05-.07.02-.18.03-.28-.1,0-.24-.05-.3,0-.16.13-.31.29-.42.47-.31.52-.6,1.06-.9,1.59-.11.2-.22.39-.33.59Zm1.93-5.61s.09.07.13.1c.19-.26.37-.52.55-.78-.04-.03-.09-.06-.13-.1-.19.26-.37.51-.56.77Zm2.04-.6l.09.06c.09-.1.19-.19.26-.3.88-1.3,1.76-2.6,2.64-3.9.66-.97,1.33-1.93,2-2.89.17-.24.35-.48.51-.72.32-.48.64-.97.97-1.46.33-.49.68-.98,1.01-1.47.25-.39.49-.79.74-1.18-.03-.03-.05-.06-.08-.08-.08.03-.18.05-.23.11-.29.32-.58.63-.83.96-.64.86-1.26,1.73-1.89,2.6-.16.22-.33.44-.48.67-.56.86-1.1,1.72-1.65,2.59-.54.85-1.08,1.69-1.62,2.54-.35.56-.71,1.12-1.05,1.68-.15.25-.27.52-.4.78Zm4.89-10.3c-.46.28-.49.35-.36.7.14-.27.25-.49.36-.7Zm-21.66-2.39c.09.02.2.02.3,0,.96-.1,1.93-.19,2.89-.3.21-.02.42-.11.63-.16,0-.07-.02-.13-.03-.2-1.27.11-2.53.21-3.8.33-.08,0-.15.13-.22.2.08.04.15.11.24.13Zm13.91.59c.34,0,.67-.02,1.01-.02,0-.04,0-.08-.01-.13-.33.03-.67.05-1,.08,0,.02,0,.05,0,.07Zm-7.78-2.25c0,.05,0,.1,0,.15.77.07,1.55.19,2.29-.18v-.15c-.77.06-1.53.12-2.3.18Zm21.05-2.53c.11-.12.22-.24.34-.37-.11-.07-.23-.22-.34-.21-.24.03-.47.14-.42.5.13-.04.23-.07.26-.08.08.08.12.12.15.16Zm14.67-3.72c.77-.18,1.54-.36,2.32-.53,0-.04,0-.09,0-.13-.33,0-.67-.02-.99.04-.23.04-.44.19-.67.28-.23.09-.47.15-.7.23.02.04.03.08.05.12Zm-.96-11.74s.07.08.11.12c.54-.5,1.08-.99,1.62-1.48-.03-.03-.06-.06-.08-.09-.59.44-1.14.92-1.65,1.45Z"/>
  </g>
</svg>