<svg id="visual" viewBox="0 0 900 600" width="900" height="600" xmlns="http://www.w3.org/2000/svg" xmlns:xlink="http://www.w3.org/1999/xlink" version="1.1"><path d="M0 37L13.7 37C27.3 37 54.7 37 82 37C109.3 37 136.7 37 163.8 37C191 37 218 37 245.2 39C272.3 41 299.7 45 327 48C354.3 51 381.7 53 409 54C436.3 55 463.7 55 491 56C518.3 57 545.7 59 573 62C600.3 65 627.7 69 654.8 65C682 61 709 49 736.2 41C763.3 33 790.7 29 818 31C845.3 33 872.7 41 886.3 45L900 49L900 0L886.3 0C872.7 0 845.3 0 818 0C790.7 0 763.3 0 736.2 0C709 0 682 0 654.8 0C627.7 0 600.3 0 573 0C545.7 0 518.3 0 491 0C463.7 0 436.3 0 409 0C381.7 0 354.3 0 327 0C299.7 0 272.3 0 245.2 0C218 0 191 0 163.8 0C136.7 0 109.3 0 82 0C54.7 0 27.3 0 13.7 0L0 0Z" fill="#7093d0"></path><path d="M0 85L13.7 88C27.3 91 54.7 97 82 111C109.3 125 136.7 147 163.8 153C191 159 218 149 245.2 137C272.3 125 299.7 111 327 110C354.3 109 381.7 121 409 123C436.3 125 463.7 117 491 116C518.3 115 545.7 121 573 130C600.3 139 627.7 151 654.8 149C682 147 709 131 736.2 129C763.3 127 790.7 139 818 145C845.3 151 872.7 151 886.3 151L900 151L900 47L886.3 43C872.7 39 845.3 31 818 29C790.7 27 763.3 31 736.2 39C709 47 682 59 654.8 63C627.7 67 600.3 63 573 60C545.7 57 518.3 55 491 54C463.7 53 436.3 53 409 52C381.7 51 354.3 49 327 46C299.7 43 272.3 39 245.2 37C218 35 191 35 163.8 35C136.7 35 109.3 35 82 35C54.7 35 27.3 35 13.7 35L0 35Z" fill="#6087ca"></path><path d="M0 223L13.7 229C27.3 235 54.7 247 82 263C109.3 279 136.7 299 163.8 307C191 315 218 311 245.2 296C272.3 281 299.7 255 327 251C354.3 247 381.7 265 409 272C436.3 279 463.7 275 491 284C518.3 293 545.7 315 573 314C600.3 313 627.7 289 654.8 278C682 267 709 269 736.2 280C763.3 291 790.7 311 818 301C845.3 291 872.7 251 886.3 231L900 211L900 149L886.3 149C872.7 149 845.3 149 818 143C790.7 137 763.3 125 736.2 127C709 129 682 145 654.8 147C627.7 149 600.3 137 573 128C545.7 119 518.3 113 491 114C463.7 115 436.3 123 409 121C381.7 119 354.3 107 327 108C299.7 109 272.3 123 245.2 135C218 147 191 157 163.8 151C136.7 145 109.3 123 82 109C54.7 95 27.3 89 13.7 86L0 83Z" fill="#507bc4"></path><path d="M0 295L13.7 294C27.3 293 54.7 291 82 301C109.3 311 136.7 333 163.8 353C191 373 218 391 245.2 380C272.3 369 299.7 329 327 317C354.3 305 381.7 321 409 329C436.3 337 463.7 337 491 346C518.3 355 545.7 373 573 369C600.3 365 627.7 339 654.8 324C682 309 709 305 736.2 320C763.3 335 790.7 369 818 362C845.3 355 872.7 307 886.3 283L900 259L900 209L886.3 229C872.7 249 845.3 289 818 299C790.7 309 763.3 289 736.2 278C709 267 682 265 654.8 276C627.7 287 600.3 311 573 312C545.7 313 518.3 291 491 282C463.7 273 436.3 277 409 270C381.7 263 354.3 245 327 249C299.7 253 272.3 279 245.2 294C218 309 191 313 163.8 305C136.7 297 109.3 277 82 261C54.7 245 27.3 233 13.7 227L0 221Z" fill="#3e70be"></path><path d="M0 331L13.7 334C27.3 337 54.7 343 82 350C109.3 357 136.7 365 163.8 382C191 399 218 425 245.2 415C272.3 405 299.7 359 327 343C354.3 327 381.7 341 409 355C436.3 369 463.7 383 491 395C518.3 407 545.7 417 573 413C600.3 409 627.7 391 654.8 373C682 355 709 337 736.2 351C763.3 365 790.7 411 818 411C845.3 411 872.7 365 886.3 342L900 319L900 257L886.3 281C872.7 305 845.3 353 818 360C790.7 367 763.3 333 736.2 318C709 303 682 307 654.8 322C627.7 337 600.3 363 573 367C545.7 371 518.3 353 491 344C463.7 335 436.3 335 409 327C381.7 319 354.3 303 327 315C299.7 327 272.3 367 245.2 378C218 389 191 371 163.8 351C136.7 331 109.3 309 82 299C54.7 289 27.3 291 13.7 292L0 293Z" fill="#3166b4"></path><path d="M0 547L13.7 542C27.3 537 54.7 527 82 519C109.3 511 136.7 505 163.8 510C191 515 218 531 245.2 533C272.3 535 299.7 523 327 513C354.3 503 381.7 495 409 492C436.3 489 463.7 491 491 497C518.3 503 545.7 513 573 521C600.3 529 627.7 535 654.8 528C682 521 709 501 736.2 499C763.3 497 790.7 513 818 514C845.3 515 872.7 501 886.3 494L900 487L900 317L886.3 340C872.7 363 845.3 409 818 409C790.7 409 763.3 363 736.2 349C709 335 682 353 654.8 371C627.7 389 600.3 407 573 411C545.7 415 518.3 405 491 393C463.7 381 436.3 367 409 353C381.7 339 354.3 325 327 341C299.7 357 272.3 403 245.2 413C218 423 191 397 163.8 380C136.7 363 109.3 355 82 348C54.7 341 27.3 335 13.7 332L0 329Z" fill="#2d5ea5"></path><path d="M0 577L13.7 574C27.3 571 54.7 565 82 558C109.3 551 136.7 543 163.8 546C191 549 218 563 245.2 567C272.3 571 299.7 565 327 558C354.3 551 381.7 543 409 539C436.3 535 463.7 535 491 537C518.3 539 545.7 543 573 550C600.3 557 627.7 567 654.8 564C682 561 709 545 736.2 543C763.3 541 790.7 553 818 555C845.3 557 872.7 549 886.3 545L900 541L900 485L886.3 492C872.7 499 845.3 513 818 512C790.7 511 763.3 495 736.2 497C709 499 682 519 654.8 526C627.7 533 600.3 527 573 519C545.7 511 518.3 501 491 495C463.7 489 436.3 487 409 490C381.7 493 354.3 501 327 511C299.7 521 272.3 533 245.2 531C218 529 191 513 163.8 508C136.7 503 109.3 509 82 517C54.7 525 27.3 535 13.7 540L0 545Z" fill="#285697"></path><path d="M0 601L13.7 601C27.3 601 54.7 601 82 601C109.3 601 136.7 601 163.8 601C191 601 218 601 245.2 601C272.3 601 299.7 601 327 601C354.3 601 381.7 601 409 601C436.3 601 463.7 601 491 601C518.3 601 545.7 601 573 601C600.3 601 627.7 601 654.8 601C682 601 709 601 736.2 601C763.3 601 790.7 601 818 601C845.3 601 872.7 601 886.3 601L900 601L900 539L886.3 543C872.7 547 845.3 555 818 553C790.7 551 763.3 539 736.2 541C709 543 682 559 654.8 562C627.7 565 600.3 555 573 548C545.7 541 518.3 537 491 535C463.7 533 436.3 533 409 537C381.7 541 354.3 549 327 556C299.7 563 272.3 569 245.2 565C218 561 191 547 163.8 544C136.7 541 109.3 549 82 556C54.7 563 27.3 569 13.7 572L0 575Z" fill="#244e89"></path></svg>